# xmcd
#
# Track frame offsets:
#	150
#	11937
#	29139
#	45050
#	61764
#	79299
#	95524
#	113841
#	130427
#	144286
#	156073
#	173275
#	189186
#	205900
#	223435
#	239660
#	257977
#	274563
#
# Disc length: 3845
#
# Revision: 1
# Processed by: cddbd v1.5.2PL0 Copyright (c) Steve Scherf et al.
# Submitted via: kJams Pro (development) 1.0patch45.4
#
DISCID=fe0f0312
DTITLE=Various Artist - NSC 3007
DYEAR=1995
DGENRE=Country
TTITLE0=Steve Wariner and Garth Brooks - Katie Wants A Fast One
TTITLE1=Billy Ray Cyrus - You Won't Be Lonely Now
TTITLE2=Shania Twain - I'm Holding On To Love To Save My Life
TTITLE3=Brad Paisley - We Danced
TTITLE4=Vince Gill - Feels Like Love
TTITLE5=Sara Evans - Born To Fly
TTITLE6=Phil Vassar - Just Another Day In Paradise
TTITLE7=Clint Black - Love She Can't Live Without
TTITLE8=Aaron Tippin - Kiss This
TTITLE9=Steve Wariner and Garth Brooks - Vocals - Katie Wants A Fast One
TTITLE10=Billy Ray Cyrus - Vocals - You Won't Be Lonely Now
TTITLE11=Shania Twain - Vocals - I'm Holding On To Love To Save My Life
TTITLE12=Brad Paisley - Vocals - We Danced
TTITLE13=Vince Gill - Vocals - Feels Like Love
TTITLE14=Sara Evans - Vocals - Born To Fly
TTITLE15=Phil Vassar - Vocals - Just Another Day In Paradise
TTITLE16=Clint Black - Vocals - Love She Can't Live Without
TTITLE17=Aaron Tippin - Vocals - Kiss This
EXTD=
EXTT0=
EXTT1=
EXTT2=
EXTT3=
EXTT4=
EXTT5=
EXTT6=
EXTT7=
EXTT8=
EXTT9=
EXTT10=
EXTT11=
EXTT12=
EXTT13=
EXTT14=
EXTT15=
EXTT16=
EXTT17=
PLAYORDER=
